<svg xmlns="http://www.w3.org/2000/svg" xmlns:xlink="http://www.w3.org/1999/xlink" width="500" zoomAndPan="magnify" viewBox="0 0 375 374.999991" height="500" preserveAspectRatio="xMidYMid meet" version="1.0"><defs><g/><clipPath id="35fae6d007"><path d="M 33.53125 12.101562 L 341.78125 12.101562 L 341.78125 276.101562 L 33.53125 276.101562 Z M 33.53125 12.101562 " clip-rule="nonzero"/></clipPath></defs><g clip-path="url(#35fae6d007)"><path fill="#451fdd" d="M 186.332031 12.101562 L 33.835938 276.234375 L 181.53125 276.234375 L 221.621094 206.796875 L 199.082031 172.660156 L 189.9375 188.503906 L 160.410156 239.648438 L 97.203125 239.648438 L 186.589844 84.816406 L 277.191406 239.136719 L 233.671875 239.136719 L 215.378906 275.722656 L 341.09375 275.722656 Z M 186.332031 12.101562 " fill-opacity="1" fill-rule="nonzero"/></g><g fill="#451fdd" fill-opacity="1"><g transform="translate(16.689196, 329.41989)"><g><path d="M 37.421875 3.453125 L 30.3125 3.453125 L 26.546875 -0.875 C 25.410156 -0.382812 24.210938 -0.00390625 22.953125 0.265625 C 21.691406 0.546875 20.367188 0.6875 18.984375 0.6875 C 16.523438 0.6875 14.25 0.265625 12.15625 -0.578125 C 10.070312 -1.421875 8.253906 -2.601562 6.703125 -4.125 C 5.148438 -5.644531 3.941406 -7.425781 3.078125 -9.46875 C 2.222656 -11.507812 1.796875 -13.726562 1.796875 -16.125 C 1.796875 -18.519531 2.222656 -20.738281 3.078125 -22.78125 C 3.941406 -24.820312 5.148438 -26.601562 6.703125 -28.125 C 8.253906 -29.644531 10.070312 -30.828125 12.15625 -31.671875 C 14.25 -32.523438 16.523438 -32.953125 18.984375 -32.953125 C 21.441406 -32.953125 23.710938 -32.523438 25.796875 -31.671875 C 27.890625 -30.828125 29.703125 -29.644531 31.234375 -28.125 C 32.773438 -26.601562 33.972656 -24.820312 34.828125 -22.78125 C 35.691406 -20.738281 36.125 -18.519531 36.125 -16.125 C 36.125 -13.664062 35.671875 -11.390625 34.765625 -9.296875 C 33.859375 -7.210938 32.625 -5.421875 31.0625 -3.921875 Z M 18.984375 -5.890625 C 19.992188 -5.890625 20.960938 -6.015625 21.890625 -6.265625 L 15.484375 -13.6875 L 22.578125 -13.6875 L 26.5 -9.171875 C 27.289062 -10.054688 27.914062 -11.085938 28.375 -12.265625 C 28.84375 -13.453125 29.078125 -14.738281 29.078125 -16.125 C 29.078125 -18.0625 28.640625 -19.804688 27.765625 -21.359375 C 26.890625 -22.910156 25.691406 -24.128906 24.171875 -25.015625 C 22.648438 -25.910156 20.921875 -26.359375 18.984375 -26.359375 C 17.078125 -26.359375 15.351562 -25.910156 13.8125 -25.015625 C 12.28125 -24.128906 11.066406 -22.910156 10.171875 -21.359375 C 9.285156 -19.804688 8.84375 -18.0625 8.84375 -16.125 C 8.84375 -14.1875 9.285156 -12.441406 10.171875 -10.890625 C 11.066406 -9.347656 12.28125 -8.128906 13.8125 -7.234375 C 15.351562 -6.335938 17.078125 -5.890625 18.984375 -5.890625 Z M 18.984375 -5.890625 "/></g></g></g><g fill="#451fdd" fill-opacity="1"><g transform="translate(54.706389, 329.41989)"><g><path d="M 14.609375 0.6875 C 12.273438 0.6875 10.222656 0.21875 8.453125 -0.71875 C 6.691406 -1.65625 5.328125 -2.957031 4.359375 -4.625 C 3.390625 -6.300781 2.90625 -8.257812 2.90625 -10.5 L 2.90625 -24.875 L 9.625 -24.875 L 9.625 -11.296875 C 9.625 -9.503906 10.0625 -8.109375 10.9375 -7.109375 C 11.8125 -6.117188 13.035156 -5.625 14.609375 -5.625 C 16.171875 -5.625 17.378906 -6.128906 18.234375 -7.140625 C 19.097656 -8.148438 19.53125 -9.535156 19.53125 -11.296875 L 19.53125 -24.875 L 26.265625 -24.875 L 26.265625 -10.5 C 26.265625 -8.257812 25.78125 -6.300781 24.8125 -4.625 C 23.84375 -2.957031 22.484375 -1.65625 20.734375 -0.71875 C 18.984375 0.21875 16.941406 0.6875 14.609375 0.6875 Z M 14.609375 0.6875 "/></g></g></g><g fill="#451fdd" fill-opacity="1"><g transform="translate(83.875945, 329.41989)"><g><path d="M 27.375 -12.53125 C 27.375 -11.882812 27.328125 -11.222656 27.234375 -10.546875 L 8.4375 -10.546875 C 8.707031 -8.859375 9.378906 -7.5625 10.453125 -6.65625 C 11.535156 -5.75 12.890625 -5.296875 14.515625 -5.296875 C 15.679688 -5.296875 16.722656 -5.546875 17.640625 -6.046875 C 18.566406 -6.554688 19.273438 -7.257812 19.765625 -8.15625 L 26.859375 -8.15625 C 25.941406 -5.445312 24.375 -3.296875 22.15625 -1.703125 C 19.945312 -0.109375 17.398438 0.6875 14.515625 0.6875 C 12.054688 0.6875 9.847656 0.113281 7.890625 -1.03125 C 5.941406 -2.1875 4.40625 -3.753906 3.28125 -5.734375 C 2.164062 -7.710938 1.609375 -9.945312 1.609375 -12.4375 C 1.609375 -14.925781 2.164062 -17.160156 3.28125 -19.140625 C 4.40625 -21.128906 5.941406 -22.695312 7.890625 -23.84375 C 9.847656 -25 12.054688 -25.578125 14.515625 -25.578125 C 17.066406 -25.578125 19.304688 -24.984375 21.234375 -23.796875 C 23.171875 -22.617188 24.675781 -21.046875 25.75 -19.078125 C 26.832031 -17.109375 27.375 -14.925781 27.375 -12.53125 Z M 14.515625 -19.859375 C 13.003906 -19.859375 11.734375 -19.441406 10.703125 -18.609375 C 9.679688 -17.785156 8.984375 -16.632812 8.609375 -15.15625 L 20.640625 -15.15625 C 19.660156 -18.289062 17.617188 -19.859375 14.515625 -19.859375 Z M 14.515625 -19.859375 "/></g></g></g><g fill="#451fdd" fill-opacity="1"><g transform="translate(112.815087, 329.41989)"><g><path d="M 14.796875 0.6875 C 12.304688 0.6875 10.0625 0.101562 8.0625 -1.0625 C 6.0625 -2.226562 4.484375 -3.804688 3.328125 -5.796875 C 2.179688 -7.796875 1.609375 -10.039062 1.609375 -12.53125 C 1.609375 -15.019531 2.179688 -17.242188 3.328125 -19.203125 C 4.484375 -21.171875 6.0625 -22.722656 8.0625 -23.859375 C 10.0625 -25.003906 12.320312 -25.578125 14.84375 -25.578125 C 16.988281 -25.578125 18.941406 -25.15625 20.703125 -24.3125 C 22.472656 -23.46875 23.945312 -22.273438 25.125 -20.734375 C 26.3125 -19.203125 27.109375 -17.421875 27.515625 -15.390625 L 20.828125 -15.390625 C 20.273438 -16.617188 19.46875 -17.570312 18.40625 -18.25 C 17.34375 -18.925781 16.140625 -19.265625 14.796875 -19.265625 C 13.597656 -19.265625 12.515625 -18.960938 11.546875 -18.359375 C 10.578125 -17.765625 9.816406 -16.957031 9.265625 -15.9375 C 8.710938 -14.925781 8.4375 -13.773438 8.4375 -12.484375 C 8.4375 -11.191406 8.710938 -10.03125 9.265625 -9 C 9.816406 -7.976562 10.578125 -7.160156 11.546875 -6.546875 C 12.515625 -5.929688 13.597656 -5.625 14.796875 -5.625 C 16.171875 -5.625 17.375 -5.984375 18.40625 -6.703125 C 19.4375 -7.421875 20.242188 -8.457031 20.828125 -9.8125 L 27.59375 -9.8125 C 27.195312 -7.726562 26.398438 -5.894531 25.203125 -4.3125 C 24.003906 -2.726562 22.515625 -1.5 20.734375 -0.625 C 18.953125 0.25 16.972656 0.6875 14.796875 0.6875 Z M 14.796875 0.6875 "/></g></g></g><g fill="#451fdd" fill-opacity="1"><g transform="translate(141.615982, 329.41989)"><g><path d="M 43.21875 0 L 36.125 0 L 32.953125 -21.0625 L 23.3125 -0.046875 L 21.609375 -0.046875 L 11.984375 -21.0625 L 8.796875 0 L 1.65625 0 L 6.734375 -32.25 L 13.734375 -32.25 L 22.4375 -12.484375 L 31.1875 -32.25 L 38.203125 -32.25 Z M 43.21875 0 "/></g></g></g><g fill="#451fdd" fill-opacity="1"><g transform="translate(186.545392, 329.41989)"><g><path d="M 23.546875 -24.921875 L 28.5625 -24.921875 L 28.5625 -0.046875 L 23.265625 -0.046875 L 22.71875 -2.265625 C 21.644531 -1.335938 20.421875 -0.613281 19.046875 -0.09375 C 17.679688 0.425781 16.21875 0.6875 14.65625 0.6875 C 12.164062 0.6875 9.9375 0.113281 7.96875 -1.03125 C 6 -2.1875 4.445312 -3.753906 3.3125 -5.734375 C 2.175781 -7.710938 1.609375 -9.960938 1.609375 -12.484375 C 1.609375 -14.972656 2.175781 -17.207031 3.3125 -19.1875 C 4.445312 -21.164062 6 -22.722656 7.96875 -23.859375 C 9.9375 -25.003906 12.164062 -25.578125 14.65625 -25.578125 C 16.25 -25.578125 17.738281 -25.304688 19.125 -24.765625 C 20.507812 -24.222656 21.738281 -23.476562 22.8125 -22.53125 Z M 15.203125 -5.671875 C 16.492188 -5.671875 17.65625 -5.960938 18.6875 -6.546875 C 19.71875 -7.128906 20.523438 -7.929688 21.109375 -8.953125 C 21.691406 -9.984375 21.984375 -11.160156 21.984375 -12.484375 C 21.984375 -13.773438 21.691406 -14.9375 21.109375 -15.96875 C 20.523438 -17 19.71875 -17.8125 18.6875 -18.40625 C 17.65625 -19.007812 16.492188 -19.3125 15.203125 -19.3125 C 13.878906 -19.3125 12.710938 -19.007812 11.703125 -18.40625 C 10.691406 -17.8125 9.894531 -17 9.3125 -15.96875 C 8.726562 -14.9375 8.4375 -13.773438 8.4375 -12.484375 C 8.4375 -11.160156 8.726562 -9.992188 9.3125 -8.984375 C 9.894531 -7.972656 10.691406 -7.164062 11.703125 -6.5625 C 12.710938 -5.96875 13.878906 -5.671875 15.203125 -5.671875 Z M 15.203125 -5.671875 "/></g></g></g><g fill="#451fdd" fill-opacity="1"><g transform="translate(218.341582, 329.41989)"><g><path d="M 17.421875 -25.484375 C 20.242188 -25.484375 22.476562 -24.535156 24.125 -22.640625 C 25.769531 -20.753906 26.59375 -18.226562 26.59375 -15.0625 L 26.59375 0 L 19.859375 0 L 19.859375 -14 C 19.859375 -17.71875 18.414062 -19.578125 15.53125 -19.578125 C 13.8125 -19.578125 12.453125 -18.992188 11.453125 -17.828125 C 10.453125 -16.660156 9.953125 -15.082031 9.953125 -13.09375 L 9.953125 0 L 3.21875 0 L 3.21875 -24.875 L 7.828125 -24.875 L 9.171875 -21.796875 C 10.085938 -22.929688 11.269531 -23.828125 12.71875 -24.484375 C 14.164062 -25.148438 15.734375 -25.484375 17.421875 -25.484375 Z M 17.421875 -25.484375 "/></g></g></g><g fill="#451fdd" fill-opacity="1"><g transform="translate(247.879774, 329.41989)"><g><path d="M 23.546875 -24.921875 L 28.5625 -24.921875 L 28.5625 -0.046875 L 23.265625 -0.046875 L 22.71875 -2.265625 C 21.644531 -1.335938 20.421875 -0.613281 19.046875 -0.09375 C 17.679688 0.425781 16.21875 0.6875 14.65625 0.6875 C 12.164062 0.6875 9.9375 0.113281 7.96875 -1.03125 C 6 -2.1875 4.445312 -3.753906 3.3125 -5.734375 C 2.175781 -7.710938 1.609375 -9.960938 1.609375 -12.484375 C 1.609375 -14.972656 2.175781 -17.207031 3.3125 -19.1875 C 4.445312 -21.164062 6 -22.722656 7.96875 -23.859375 C 9.9375 -25.003906 12.164062 -25.578125 14.65625 -25.578125 C 16.25 -25.578125 17.738281 -25.304688 19.125 -24.765625 C 20.507812 -24.222656 21.738281 -23.476562 22.8125 -22.53125 Z M 15.203125 -5.671875 C 16.492188 -5.671875 17.65625 -5.960938 18.6875 -6.546875 C 19.71875 -7.128906 20.523438 -7.929688 21.109375 -8.953125 C 21.691406 -9.984375 21.984375 -11.160156 21.984375 -12.484375 C 21.984375 -13.773438 21.691406 -14.9375 21.109375 -15.96875 C 20.523438 -17 19.71875 -17.8125 18.6875 -18.40625 C 17.65625 -19.007812 16.492188 -19.3125 15.203125 -19.3125 C 13.878906 -19.3125 12.710938 -19.007812 11.703125 -18.40625 C 10.691406 -17.8125 9.894531 -17 9.3125 -15.96875 C 8.726562 -14.9375 8.4375 -13.773438 8.4375 -12.484375 C 8.4375 -11.160156 8.726562 -9.992188 9.3125 -8.984375 C 9.894531 -7.972656 10.691406 -7.164062 11.703125 -6.5625 C 12.710938 -5.96875 13.878906 -5.671875 15.203125 -5.671875 Z M 15.203125 -5.671875 "/></g></g></g><g fill="#451fdd" fill-opacity="1"><g transform="translate(279.67595, 329.41989)"><g><path d="M 23.3125 -24.875 L 27.6875 -24.875 L 27.6875 -2.90625 C 27.6875 -0.289062 27.171875 1.953125 26.140625 3.828125 C 25.117188 5.703125 23.65625 7.144531 21.75 8.15625 C 19.84375 9.164062 17.582031 9.671875 14.96875 9.671875 C 11.59375 9.671875 8.773438 8.859375 6.515625 7.234375 C 4.265625 5.609375 2.859375 3.378906 2.296875 0.546875 L 8.984375 0.546875 C 9.347656 1.660156 10.109375 2.5 11.265625 3.0625 C 12.421875 3.632812 13.613281 3.921875 14.84375 3.921875 C 16.5625 3.921875 18.023438 3.40625 19.234375 2.375 C 20.453125 1.34375 21.0625 -0.09375 21.0625 -1.9375 L 21.0625 -2.859375 C 20.070312 -2.148438 18.976562 -1.601562 17.78125 -1.21875 C 16.582031 -0.832031 15.3125 -0.640625 13.96875 -0.640625 C 11.65625 -0.640625 9.5625 -1.191406 7.6875 -2.296875 C 5.820312 -3.410156 4.34375 -4.898438 3.25 -6.765625 C 2.15625 -8.640625 1.609375 -10.75 1.609375 -13.09375 C 1.609375 -15.425781 2.15625 -17.535156 3.25 -19.421875 C 4.34375 -21.304688 5.820312 -22.800781 7.6875 -23.90625 C 9.5625 -25.019531 11.65625 -25.578125 13.96875 -25.578125 C 15.59375 -25.578125 17.109375 -25.300781 18.515625 -24.75 C 19.929688 -24.195312 21.175781 -23.410156 22.25 -22.390625 Z M 14.75 -6.640625 C 16.59375 -6.640625 18.113281 -7.242188 19.3125 -8.453125 C 20.507812 -9.671875 21.109375 -11.21875 21.109375 -13.09375 C 21.109375 -14.925781 20.515625 -16.445312 19.328125 -17.65625 C 18.148438 -18.875 16.625 -19.484375 14.75 -19.484375 C 12.9375 -19.484375 11.429688 -18.875 10.234375 -17.65625 C 9.035156 -16.445312 8.4375 -14.925781 8.4375 -13.09375 C 8.4375 -11.21875 9.023438 -9.671875 10.203125 -8.453125 C 11.390625 -7.242188 12.90625 -6.640625 14.75 -6.640625 Z M 14.75 -6.640625 "/></g></g></g><g fill="#451fdd" fill-opacity="1"><g transform="translate(310.596596, 329.41989)"><g><path d="M 27.375 -12.53125 C 27.375 -11.882812 27.328125 -11.222656 27.234375 -10.546875 L 8.4375 -10.546875 C 8.707031 -8.859375 9.378906 -7.5625 10.453125 -6.65625 C 11.535156 -5.75 12.890625 -5.296875 14.515625 -5.296875 C 15.679688 -5.296875 16.722656 -5.546875 17.640625 -6.046875 C 18.566406 -6.554688 19.273438 -7.257812 19.765625 -8.15625 L 26.859375 -8.15625 C 25.941406 -5.445312 24.375 -3.296875 22.15625 -1.703125 C 19.945312 -0.109375 17.398438 0.6875 14.515625 0.6875 C 12.054688 0.6875 9.847656 0.113281 7.890625 -1.03125 C 5.941406 -2.1875 4.40625 -3.753906 3.28125 -5.734375 C 2.164062 -7.710938 1.609375 -9.945312 1.609375 -12.4375 C 1.609375 -14.925781 2.164062 -17.160156 3.28125 -19.140625 C 4.40625 -21.128906 5.941406 -22.695312 7.890625 -23.84375 C 9.847656 -25 12.054688 -25.578125 14.515625 -25.578125 C 17.066406 -25.578125 19.304688 -24.984375 21.234375 -23.796875 C 23.171875 -22.617188 24.675781 -21.046875 25.75 -19.078125 C 26.832031 -17.109375 27.375 -14.925781 27.375 -12.53125 Z M 14.515625 -19.859375 C 13.003906 -19.859375 11.734375 -19.441406 10.703125 -18.609375 C 9.679688 -17.785156 8.984375 -16.632812 8.609375 -15.15625 L 20.640625 -15.15625 C 19.660156 -18.289062 17.617188 -19.859375 14.515625 -19.859375 Z M 14.515625 -19.859375 "/></g></g></g><g fill="#451fdd" fill-opacity="1"><g transform="translate(339.535752, 329.41989)"><g><path d="M 15.9375 -25.015625 L 18.15625 -25.015625 L 18.15625 -18.65625 L 15.25 -18.65625 C 13.34375 -18.65625 11.984375 -18.207031 11.171875 -17.3125 C 10.359375 -16.425781 9.953125 -14.972656 9.953125 -12.953125 L 9.953125 0 L 3.21875 0 L 3.21875 -24.875 L 7.5625 -24.875 L 8.75 -21.84375 C 10.445312 -23.957031 12.84375 -25.015625 15.9375 -25.015625 Z M 15.9375 -25.015625 "/></g></g></g></svg>