<svg xmlns="http://www.w3.org/2000/svg" xmlns:xlink="http://www.w3.org/1999/xlink" width="500" zoomAndPan="magnify" viewBox="0 0 375 374.999991" height="500" preserveAspectRatio="xMidYMid meet" version="1.0"><defs><g/><clipPath id="aaa14affa3"><path d="M 6 31.832031 L 368.960938 31.832031 L 368.960938 343.082031 L 6 343.082031 Z M 6 31.832031 " clip-rule="nonzero"/></clipPath></defs><g clip-path="url(#aaa14affa3)"><path fill="#451fdd" d="M 186.121094 31.832031 L 6.316406 343.261719 L 180.464844 343.261719 L 227.730469 261.390625 L 201.15625 221.140625 L 190.371094 239.824219 L 155.558594 300.125 L 81.035156 300.125 L 186.429688 117.566406 L 293.253906 299.523438 L 241.9375 299.523438 L 220.371094 342.660156 L 368.597656 342.660156 Z M 186.121094 31.832031 " fill-opacity="1" fill-rule="nonzero"/></g><g fill="#451fdd" fill-opacity="1"><g transform="translate(79.357785, 324.930252)"><g><path d="M 1.71875 0 L 1.3125 0 L 1.3125 -1.375 L 0.09375 -3.515625 L 0.546875 -3.515625 L 1.484375 -1.875 L 1.546875 -1.875 L 2.484375 -3.515625 L 2.9375 -3.515625 L 1.71875 -1.375 Z M 1.71875 0 "/></g></g><g transform="translate(82.379011, 324.930252)"><g><path d="M 1.515625 0.046875 C 1.265625 0.046875 1.046875 -0.00390625 0.859375 -0.109375 C 0.679688 -0.210938 0.539062 -0.367188 0.4375 -0.578125 C 0.34375 -0.785156 0.296875 -1.035156 0.296875 -1.328125 C 0.296875 -1.617188 0.34375 -1.867188 0.4375 -2.078125 C 0.539062 -2.285156 0.679688 -2.441406 0.859375 -2.546875 C 1.046875 -2.648438 1.265625 -2.703125 1.515625 -2.703125 C 1.765625 -2.703125 1.984375 -2.648438 2.171875 -2.546875 C 2.359375 -2.441406 2.5 -2.285156 2.59375 -2.078125 C 2.695312 -1.867188 2.75 -1.617188 2.75 -1.328125 C 2.75 -1.035156 2.695312 -0.785156 2.59375 -0.578125 C 2.5 -0.367188 2.359375 -0.210938 2.171875 -0.109375 C 1.984375 -0.00390625 1.765625 0.046875 1.515625 0.046875 Z M 1.515625 -0.296875 C 1.785156 -0.296875 1.988281 -0.378906 2.125 -0.546875 C 2.269531 -0.710938 2.34375 -0.972656 2.34375 -1.328125 C 2.34375 -1.671875 2.269531 -1.925781 2.125 -2.09375 C 1.988281 -2.257812 1.785156 -2.34375 1.515625 -2.34375 C 1.253906 -2.34375 1.050781 -2.257812 0.90625 -2.09375 C 0.769531 -1.925781 0.703125 -1.671875 0.703125 -1.328125 C 0.703125 -0.972656 0.769531 -0.710938 0.90625 -0.546875 C 1.050781 -0.378906 1.253906 -0.296875 1.515625 -0.296875 Z M 1.515625 -0.296875 "/></g></g><g transform="translate(85.421869, 324.930252)"><g><path d="M 1.3125 0.046875 C 1.007812 0.046875 0.785156 -0.03125 0.640625 -0.1875 C 0.492188 -0.34375 0.421875 -0.578125 0.421875 -0.890625 L 0.421875 -2.65625 L 0.8125 -2.65625 L 0.8125 -0.890625 C 0.8125 -0.492188 1 -0.296875 1.375 -0.296875 C 1.613281 -0.296875 1.800781 -0.375 1.9375 -0.53125 C 2.082031 -0.6875 2.15625 -0.941406 2.15625 -1.296875 L 2.15625 -2.65625 L 2.546875 -2.65625 L 2.546875 0 L 2.1875 0 L 2.1875 -0.421875 L 2.125 -0.421875 C 2.039062 -0.265625 1.929688 -0.144531 1.796875 -0.0625 C 1.671875 0.0078125 1.507812 0.046875 1.3125 0.046875 Z M 1.3125 0.046875 "/></g></g><g transform="translate(88.433481, 324.930252)"><g><path d="M 0.46875 0 L 0.46875 -2.65625 L 0.828125 -2.65625 L 0.828125 -2.234375 L 0.890625 -2.21875 C 1.003906 -2.519531 1.234375 -2.671875 1.578125 -2.671875 C 1.765625 -2.671875 1.898438 -2.640625 1.984375 -2.578125 L 1.890625 -2.25 L 1.84375 -2.234375 C 1.738281 -2.285156 1.628906 -2.3125 1.515625 -2.3125 C 1.296875 -2.3125 1.128906 -2.226562 1.015625 -2.0625 C 0.910156 -1.90625 0.859375 -1.648438 0.859375 -1.296875 L 0.859375 0 Z M 0.46875 0 "/></g></g><g transform="translate(90.481281, 324.930252)"><g/></g><g transform="translate(91.687849, 324.930252)"><g><path d="M 0.46875 1.078125 L 0.46875 -2.65625 L 0.859375 -2.65625 L 0.859375 -2.25 L 0.90625 -2.25 C 1.101562 -2.550781 1.390625 -2.703125 1.765625 -2.703125 C 1.992188 -2.703125 2.1875 -2.648438 2.34375 -2.546875 C 2.507812 -2.453125 2.640625 -2.300781 2.734375 -2.09375 C 2.828125 -1.882812 2.875 -1.628906 2.875 -1.328125 C 2.875 -1.023438 2.820312 -0.769531 2.71875 -0.5625 C 2.625 -0.351562 2.492188 -0.195312 2.328125 -0.09375 C 2.160156 0 1.96875 0.046875 1.75 0.046875 C 1.5625 0.046875 1.398438 0.015625 1.265625 -0.046875 C 1.128906 -0.109375 1.007812 -0.207031 0.90625 -0.34375 L 0.859375 -0.34375 L 0.859375 1.078125 Z M 1.65625 -0.296875 C 2.195312 -0.296875 2.46875 -0.640625 2.46875 -1.328125 C 2.46875 -2.003906 2.195312 -2.34375 1.65625 -2.34375 C 1.5 -2.34375 1.359375 -2.304688 1.234375 -2.234375 C 1.117188 -2.171875 1.023438 -2.0625 0.953125 -1.90625 C 0.890625 -1.75 0.859375 -1.554688 0.859375 -1.328125 C 0.859375 -1.085938 0.890625 -0.890625 0.953125 -0.734375 C 1.023438 -0.585938 1.117188 -0.476562 1.234375 -0.40625 C 1.359375 -0.332031 1.5 -0.296875 1.65625 -0.296875 Z M 1.65625 -0.296875 "/></g></g><g transform="translate(94.850883, 324.930252)"><g><path d="M 1.09375 0.046875 C 0.832031 0.046875 0.628906 -0.0195312 0.484375 -0.15625 C 0.335938 -0.289062 0.265625 -0.484375 0.265625 -0.734375 C 0.265625 -0.890625 0.296875 -1.019531 0.359375 -1.125 C 0.421875 -1.238281 0.519531 -1.328125 0.65625 -1.390625 C 0.789062 -1.460938 0.96875 -1.519531 1.1875 -1.5625 C 1.382812 -1.59375 1.53125 -1.625 1.625 -1.65625 C 1.726562 -1.695312 1.796875 -1.742188 1.828125 -1.796875 C 1.867188 -1.847656 1.890625 -1.910156 1.890625 -1.984375 C 1.890625 -2.109375 1.847656 -2.203125 1.765625 -2.265625 C 1.679688 -2.328125 1.546875 -2.359375 1.359375 -2.359375 C 1.191406 -2.359375 1.046875 -2.320312 0.921875 -2.25 C 0.796875 -2.1875 0.6875 -2.09375 0.59375 -1.96875 L 0.53125 -1.96875 L 0.34375 -2.234375 C 0.457031 -2.378906 0.597656 -2.492188 0.765625 -2.578125 C 0.941406 -2.660156 1.140625 -2.703125 1.359375 -2.703125 C 1.671875 -2.703125 1.898438 -2.632812 2.046875 -2.5 C 2.203125 -2.363281 2.28125 -2.171875 2.28125 -1.921875 L 2.28125 -0.515625 C 2.28125 -0.367188 2.34375 -0.296875 2.46875 -0.296875 C 2.507812 -0.296875 2.546875 -0.304688 2.578125 -0.328125 L 2.625 -0.3125 L 2.671875 -0.046875 C 2.640625 -0.0234375 2.597656 -0.0078125 2.546875 0 C 2.503906 0.0078125 2.457031 0.015625 2.40625 0.015625 C 2.257812 0.015625 2.148438 -0.015625 2.078125 -0.078125 C 2.003906 -0.140625 1.957031 -0.234375 1.9375 -0.359375 L 1.875 -0.359375 C 1.800781 -0.222656 1.703125 -0.117188 1.578125 -0.046875 C 1.453125 0.015625 1.289062 0.046875 1.09375 0.046875 Z M 1.1875 -0.265625 C 1.332031 -0.265625 1.457031 -0.296875 1.5625 -0.359375 C 1.664062 -0.429688 1.75 -0.53125 1.8125 -0.65625 C 1.875 -0.78125 1.90625 -0.921875 1.90625 -1.078125 L 1.90625 -1.421875 L 1.859375 -1.421875 C 1.796875 -1.378906 1.722656 -1.34375 1.640625 -1.3125 C 1.554688 -1.289062 1.4375 -1.269531 1.28125 -1.25 C 1.125 -1.226562 1 -1.191406 0.90625 -1.140625 C 0.820312 -1.097656 0.757812 -1.046875 0.71875 -0.984375 C 0.675781 -0.921875 0.65625 -0.835938 0.65625 -0.734375 C 0.65625 -0.578125 0.703125 -0.457031 0.796875 -0.375 C 0.890625 -0.300781 1.019531 -0.265625 1.1875 -0.265625 Z M 1.1875 -0.265625 "/></g></g><g transform="translate(97.593301, 324.930252)"><g><path d="M 0.46875 0 L 0.46875 -2.65625 L 0.828125 -2.65625 L 0.828125 -2.234375 L 0.890625 -2.21875 C 1.003906 -2.519531 1.234375 -2.671875 1.578125 -2.671875 C 1.765625 -2.671875 1.898438 -2.640625 1.984375 -2.578125 L 1.890625 -2.25 L 1.84375 -2.234375 C 1.738281 -2.285156 1.628906 -2.3125 1.515625 -2.3125 C 1.296875 -2.3125 1.128906 -2.226562 1.015625 -2.0625 C 0.910156 -1.90625 0.859375 -1.648438 0.859375 -1.296875 L 0.859375 0 Z M 0.46875 0 "/></g></g><g transform="translate(99.641101, 324.930252)"><g><path d="M 1.09375 0.046875 C 0.832031 0.046875 0.628906 -0.0195312 0.484375 -0.15625 C 0.335938 -0.289062 0.265625 -0.484375 0.265625 -0.734375 C 0.265625 -0.890625 0.296875 -1.019531 0.359375 -1.125 C 0.421875 -1.238281 0.519531 -1.328125 0.65625 -1.390625 C 0.789062 -1.460938 0.96875 -1.519531 1.1875 -1.5625 C 1.382812 -1.59375 1.53125 -1.625 1.625 -1.65625 C 1.726562 -1.695312 1.796875 -1.742188 1.828125 -1.796875 C 1.867188 -1.847656 1.890625 -1.910156 1.890625 -1.984375 C 1.890625 -2.109375 1.847656 -2.203125 1.765625 -2.265625 C 1.679688 -2.328125 1.546875 -2.359375 1.359375 -2.359375 C 1.191406 -2.359375 1.046875 -2.320312 0.921875 -2.25 C 0.796875 -2.1875 0.6875 -2.09375 0.59375 -1.96875 L 0.53125 -1.96875 L 0.34375 -2.234375 C 0.457031 -2.378906 0.597656 -2.492188 0.765625 -2.578125 C 0.941406 -2.660156 1.140625 -2.703125 1.359375 -2.703125 C 1.671875 -2.703125 1.898438 -2.632812 2.046875 -2.5 C 2.203125 -2.363281 2.28125 -2.171875 2.28125 -1.921875 L 2.28125 -0.515625 C 2.28125 -0.367188 2.34375 -0.296875 2.46875 -0.296875 C 2.507812 -0.296875 2.546875 -0.304688 2.578125 -0.328125 L 2.625 -0.3125 L 2.671875 -0.046875 C 2.640625 -0.0234375 2.597656 -0.0078125 2.546875 0 C 2.503906 0.0078125 2.457031 0.015625 2.40625 0.015625 C 2.257812 0.015625 2.148438 -0.015625 2.078125 -0.078125 C 2.003906 -0.140625 1.957031 -0.234375 1.9375 -0.359375 L 1.875 -0.359375 C 1.800781 -0.222656 1.703125 -0.117188 1.578125 -0.046875 C 1.453125 0.015625 1.289062 0.046875 1.09375 0.046875 Z M 1.1875 -0.265625 C 1.332031 -0.265625 1.457031 -0.296875 1.5625 -0.359375 C 1.664062 -0.429688 1.75 -0.53125 1.8125 -0.65625 C 1.875 -0.78125 1.90625 -0.921875 1.90625 -1.078125 L 1.90625 -1.421875 L 1.859375 -1.421875 C 1.796875 -1.378906 1.722656 -1.34375 1.640625 -1.3125 C 1.554688 -1.289062 1.4375 -1.269531 1.28125 -1.25 C 1.125 -1.226562 1 -1.191406 0.90625 -1.140625 C 0.820312 -1.097656 0.757812 -1.046875 0.71875 -0.984375 C 0.675781 -0.921875 0.65625 -0.835938 0.65625 -0.734375 C 0.65625 -0.578125 0.703125 -0.457031 0.796875 -0.375 C 0.890625 -0.300781 1.019531 -0.265625 1.1875 -0.265625 Z M 1.1875 -0.265625 "/></g></g><g transform="translate(102.383519, 324.930252)"><g><path d="M 1.359375 1.125 C 0.941406 1.125 0.632812 1.050781 0.4375 0.90625 C 0.25 0.769531 0.15625 0.585938 0.15625 0.359375 C 0.15625 0.210938 0.203125 0.09375 0.296875 0 C 0.390625 -0.0820312 0.519531 -0.144531 0.6875 -0.1875 L 0.6875 -0.234375 C 0.601562 -0.285156 0.539062 -0.34375 0.5 -0.40625 C 0.457031 -0.46875 0.4375 -0.539062 0.4375 -0.625 C 0.4375 -0.726562 0.46875 -0.8125 0.53125 -0.875 C 0.601562 -0.9375 0.703125 -0.984375 0.828125 -1.015625 L 0.828125 -1.0625 C 0.535156 -1.21875 0.390625 -1.46875 0.390625 -1.8125 C 0.390625 -1.988281 0.425781 -2.140625 0.5 -2.265625 C 0.582031 -2.398438 0.695312 -2.503906 0.84375 -2.578125 C 0.988281 -2.660156 1.160156 -2.703125 1.359375 -2.703125 C 1.578125 -2.703125 1.765625 -2.648438 1.921875 -2.546875 C 1.972656 -2.609375 2.015625 -2.675781 2.046875 -2.75 C 2.078125 -2.820312 2.09375 -2.90625 2.09375 -3 L 2.15625 -3.03125 L 2.46875 -2.953125 C 2.457031 -2.816406 2.414062 -2.703125 2.34375 -2.609375 C 2.28125 -2.515625 2.191406 -2.4375 2.078125 -2.375 L 2.078125 -2.328125 C 2.160156 -2.265625 2.222656 -2.1875 2.265625 -2.09375 C 2.304688 -2 2.328125 -1.894531 2.328125 -1.78125 C 2.328125 -1.613281 2.285156 -1.460938 2.203125 -1.328125 C 2.117188 -1.191406 2.003906 -1.085938 1.859375 -1.015625 C 1.710938 -0.941406 1.546875 -0.90625 1.359375 -0.90625 C 1.335938 -0.90625 1.296875 -0.90625 1.234375 -0.90625 C 1.171875 -0.90625 1.125 -0.90625 1.09375 -0.90625 C 1.007812 -0.90625 0.941406 -0.882812 0.890625 -0.84375 C 0.847656 -0.800781 0.828125 -0.742188 0.828125 -0.671875 C 0.828125 -0.585938 0.851562 -0.523438 0.90625 -0.484375 C 0.957031 -0.453125 1.046875 -0.429688 1.171875 -0.421875 L 1.796875 -0.40625 C 2.066406 -0.394531 2.265625 -0.332031 2.390625 -0.21875 C 2.523438 -0.101562 2.59375 0.0625 2.59375 0.28125 C 2.59375 0.4375 2.550781 0.578125 2.46875 0.703125 C 2.382812 0.828125 2.25 0.925781 2.0625 1 C 1.875 1.082031 1.640625 1.125 1.359375 1.125 Z M 1.359375 -1.234375 C 1.546875 -1.234375 1.691406 -1.28125 1.796875 -1.375 C 1.898438 -1.476562 1.953125 -1.617188 1.953125 -1.796875 C 1.953125 -1.972656 1.898438 -2.109375 1.796875 -2.203125 C 1.691406 -2.304688 1.546875 -2.359375 1.359375 -2.359375 C 1.171875 -2.359375 1.023438 -2.304688 0.921875 -2.203125 C 0.828125 -2.109375 0.78125 -1.972656 0.78125 -1.796875 C 0.78125 -1.617188 0.828125 -1.476562 0.921875 -1.375 C 1.023438 -1.28125 1.171875 -1.234375 1.359375 -1.234375 Z M 1.359375 0.78125 C 1.554688 0.78125 1.71875 0.757812 1.84375 0.71875 C 1.96875 0.675781 2.054688 0.617188 2.109375 0.546875 C 2.160156 0.472656 2.1875 0.394531 2.1875 0.3125 C 2.1875 0.226562 2.171875 0.160156 2.140625 0.109375 C 2.117188 0.0664062 2.070312 0.0351562 2 0.015625 C 1.9375 -0.00390625 1.847656 -0.0195312 1.734375 -0.03125 L 1.140625 -0.0625 L 1.0625 -0.0625 C 0.726562 -0.0507812 0.5625 0.078125 0.5625 0.328125 C 0.5625 0.628906 0.828125 0.78125 1.359375 0.78125 Z M 1.359375 0.78125 "/></g></g><g transform="translate(105.099498, 324.930252)"><g><path d="M 0.46875 0 L 0.46875 -2.65625 L 0.828125 -2.65625 L 0.828125 -2.234375 L 0.890625 -2.21875 C 1.003906 -2.519531 1.234375 -2.671875 1.578125 -2.671875 C 1.765625 -2.671875 1.898438 -2.640625 1.984375 -2.578125 L 1.890625 -2.25 L 1.84375 -2.234375 C 1.738281 -2.285156 1.628906 -2.3125 1.515625 -2.3125 C 1.296875 -2.3125 1.128906 -2.226562 1.015625 -2.0625 C 0.910156 -1.90625 0.859375 -1.648438 0.859375 -1.296875 L 0.859375 0 Z M 0.46875 0 "/></g></g><g transform="translate(107.147298, 324.930252)"><g><path d="M 1.09375 0.046875 C 0.832031 0.046875 0.628906 -0.0195312 0.484375 -0.15625 C 0.335938 -0.289062 0.265625 -0.484375 0.265625 -0.734375 C 0.265625 -0.890625 0.296875 -1.019531 0.359375 -1.125 C 0.421875 -1.238281 0.519531 -1.328125 0.65625 -1.390625 C 0.789062 -1.460938 0.96875 -1.519531 1.1875 -1.5625 C 1.382812 -1.59375 1.53125 -1.625 1.625 -1.65625 C 1.726562 -1.695312 1.796875 -1.742188 1.828125 -1.796875 C 1.867188 -1.847656 1.890625 -1.910156 1.890625 -1.984375 C 1.890625 -2.109375 1.847656 -2.203125 1.765625 -2.265625 C 1.679688 -2.328125 1.546875 -2.359375 1.359375 -2.359375 C 1.191406 -2.359375 1.046875 -2.320312 0.921875 -2.25 C 0.796875 -2.1875 0.6875 -2.09375 0.59375 -1.96875 L 0.53125 -1.96875 L 0.34375 -2.234375 C 0.457031 -2.378906 0.597656 -2.492188 0.765625 -2.578125 C 0.941406 -2.660156 1.140625 -2.703125 1.359375 -2.703125 C 1.671875 -2.703125 1.898438 -2.632812 2.046875 -2.5 C 2.203125 -2.363281 2.28125 -2.171875 2.28125 -1.921875 L 2.28125 -0.515625 C 2.28125 -0.367188 2.34375 -0.296875 2.46875 -0.296875 C 2.507812 -0.296875 2.546875 -0.304688 2.578125 -0.328125 L 2.625 -0.3125 L 2.671875 -0.046875 C 2.640625 -0.0234375 2.597656 -0.0078125 2.546875 0 C 2.503906 0.0078125 2.457031 0.015625 2.40625 0.015625 C 2.257812 0.015625 2.148438 -0.015625 2.078125 -0.078125 C 2.003906 -0.140625 1.957031 -0.234375 1.9375 -0.359375 L 1.875 -0.359375 C 1.800781 -0.222656 1.703125 -0.117188 1.578125 -0.046875 C 1.453125 0.015625 1.289062 0.046875 1.09375 0.046875 Z M 1.1875 -0.265625 C 1.332031 -0.265625 1.457031 -0.296875 1.5625 -0.359375 C 1.664062 -0.429688 1.75 -0.53125 1.8125 -0.65625 C 1.875 -0.78125 1.90625 -0.921875 1.90625 -1.078125 L 1.90625 -1.421875 L 1.859375 -1.421875 C 1.796875 -1.378906 1.722656 -1.34375 1.640625 -1.3125 C 1.554688 -1.289062 1.4375 -1.269531 1.28125 -1.25 C 1.125 -1.226562 1 -1.191406 0.90625 -1.140625 C 0.820312 -1.097656 0.757812 -1.046875 0.71875 -0.984375 C 0.675781 -0.921875 0.65625 -0.835938 0.65625 -0.734375 C 0.65625 -0.578125 0.703125 -0.457031 0.796875 -0.375 C 0.890625 -0.300781 1.019531 -0.265625 1.1875 -0.265625 Z M 1.1875 -0.265625 "/></g></g><g transform="translate(109.889716, 324.930252)"><g><path d="M 0.46875 1.078125 L 0.46875 -2.65625 L 0.859375 -2.65625 L 0.859375 -2.25 L 0.90625 -2.25 C 1.101562 -2.550781 1.390625 -2.703125 1.765625 -2.703125 C 1.992188 -2.703125 2.1875 -2.648438 2.34375 -2.546875 C 2.507812 -2.453125 2.640625 -2.300781 2.734375 -2.09375 C 2.828125 -1.882812 2.875 -1.628906 2.875 -1.328125 C 2.875 -1.023438 2.820312 -0.769531 2.71875 -0.5625 C 2.625 -0.351562 2.492188 -0.195312 2.328125 -0.09375 C 2.160156 0 1.96875 0.046875 1.75 0.046875 C 1.5625 0.046875 1.398438 0.015625 1.265625 -0.046875 C 1.128906 -0.109375 1.007812 -0.207031 0.90625 -0.34375 L 0.859375 -0.34375 L 0.859375 1.078125 Z M 1.65625 -0.296875 C 2.195312 -0.296875 2.46875 -0.640625 2.46875 -1.328125 C 2.46875 -2.003906 2.195312 -2.34375 1.65625 -2.34375 C 1.5 -2.34375 1.359375 -2.304688 1.234375 -2.234375 C 1.117188 -2.171875 1.023438 -2.0625 0.953125 -1.90625 C 0.890625 -1.75 0.859375 -1.554688 0.859375 -1.328125 C 0.859375 -1.085938 0.890625 -0.890625 0.953125 -0.734375 C 1.023438 -0.585938 1.117188 -0.476562 1.234375 -0.40625 C 1.359375 -0.332031 1.5 -0.296875 1.65625 -0.296875 Z M 1.65625 -0.296875 "/></g></g><g transform="translate(113.05275, 324.930252)"><g><path d="M 0.46875 0 L 0.46875 -3.71875 L 0.859375 -3.71875 L 0.859375 -2.28125 L 0.90625 -2.265625 C 1.09375 -2.554688 1.363281 -2.703125 1.71875 -2.703125 C 2.039062 -2.703125 2.269531 -2.617188 2.40625 -2.453125 C 2.550781 -2.296875 2.625 -2.046875 2.625 -1.703125 L 2.625 0 L 2.234375 0 L 2.234375 -1.703125 C 2.234375 -1.859375 2.210938 -1.984375 2.171875 -2.078125 C 2.140625 -2.179688 2.078125 -2.253906 1.984375 -2.296875 C 1.898438 -2.335938 1.789062 -2.359375 1.65625 -2.359375 C 1.414062 -2.359375 1.222656 -2.28125 1.078125 -2.125 C 0.929688 -1.96875 0.859375 -1.710938 0.859375 -1.359375 L 0.859375 0 Z M 0.46875 0 "/></g></g><g transform="translate(116.105222, 324.930252)"><g/></g><g transform="translate(117.31179, 324.930252)"><g><path d="M 1.796875 -0.421875 L 1.921875 -0.140625 C 1.859375 -0.078125 1.773438 -0.03125 1.671875 0 C 1.566406 0.03125 1.457031 0.046875 1.34375 0.046875 C 0.832031 0.046875 0.578125 -0.207031 0.578125 -0.71875 L 0.578125 -2.328125 L 0.125 -2.328125 L 0.125 -2.65625 L 0.578125 -2.65625 L 0.578125 -3.21875 L 0.96875 -3.28125 L 0.96875 -2.65625 L 1.828125 -2.65625 L 1.828125 -2.328125 L 0.96875 -2.328125 L 0.96875 -0.75 C 0.96875 -0.445312 1.101562 -0.296875 1.375 -0.296875 C 1.519531 -0.296875 1.644531 -0.335938 1.75 -0.421875 Z M 1.796875 -0.421875 "/></g></g><g transform="translate(119.330747, 324.930252)"><g><path d="M 2.53125 -1.234375 L 0.703125 -1.234375 C 0.710938 -0.910156 0.789062 -0.671875 0.9375 -0.515625 C 1.082031 -0.367188 1.28125 -0.296875 1.53125 -0.296875 C 1.71875 -0.296875 1.867188 -0.328125 1.984375 -0.390625 C 2.097656 -0.460938 2.1875 -0.570312 2.25 -0.71875 L 2.3125 -0.71875 L 2.5625 -0.5625 C 2.476562 -0.375 2.351562 -0.222656 2.1875 -0.109375 C 2.019531 -0.00390625 1.800781 0.046875 1.53125 0.046875 C 1.269531 0.046875 1.046875 0 0.859375 -0.09375 C 0.679688 -0.195312 0.539062 -0.351562 0.4375 -0.5625 C 0.34375 -0.769531 0.296875 -1.023438 0.296875 -1.328125 C 0.296875 -1.628906 0.347656 -1.878906 0.453125 -2.078125 C 0.554688 -2.285156 0.695312 -2.441406 0.875 -2.546875 C 1.0625 -2.648438 1.269531 -2.703125 1.5 -2.703125 C 1.84375 -2.703125 2.109375 -2.601562 2.296875 -2.40625 C 2.484375 -2.21875 2.578125 -1.9375 2.578125 -1.5625 C 2.578125 -1.414062 2.578125 -1.316406 2.578125 -1.265625 Z M 2.203125 -1.5625 C 2.191406 -1.84375 2.125 -2.046875 2 -2.171875 C 1.882812 -2.304688 1.71875 -2.375 1.5 -2.375 C 1.269531 -2.375 1.085938 -2.304688 0.953125 -2.171875 C 0.816406 -2.046875 0.738281 -1.84375 0.71875 -1.5625 Z M 2.203125 -1.5625 "/></g></g><g transform="translate(122.157289, 324.930252)"><g><path d="M 0.546875 0 L 0.125 0 L 0.9375 -1.375 L 0.15625 -2.65625 L 0.609375 -2.65625 L 1.21875 -1.625 L 1.265625 -1.625 L 1.890625 -2.65625 L 2.3125 -2.65625 L 1.546875 -1.375 L 2.34375 0 L 1.90625 0 L 1.25 -1.125 L 1.203125 -1.125 Z M 0.546875 0 "/></g></g><g transform="translate(124.628108, 324.930252)"><g><path d="M 1.796875 -0.421875 L 1.921875 -0.140625 C 1.859375 -0.078125 1.773438 -0.03125 1.671875 0 C 1.566406 0.03125 1.457031 0.046875 1.34375 0.046875 C 0.832031 0.046875 0.578125 -0.207031 0.578125 -0.71875 L 0.578125 -2.328125 L 0.125 -2.328125 L 0.125 -2.65625 L 0.578125 -2.65625 L 0.578125 -3.21875 L 0.96875 -3.28125 L 0.96875 -2.65625 L 1.828125 -2.65625 L 1.828125 -2.328125 L 0.96875 -2.328125 L 0.96875 -0.75 C 0.96875 -0.445312 1.101562 -0.296875 1.375 -0.296875 C 1.519531 -0.296875 1.644531 -0.335938 1.75 -0.421875 Z M 1.796875 -0.421875 "/></g></g></g></svg>